<?xml version="1.0" standalone="no"?>
<!DOCTYPE svg PUBLIC "-//W3C//DTD SVG 20010904//EN"
 "http://www.w3.org/TR/2001/REC-SVG-20010904/DTD/svg10.dtd">
<svg version="1.0" xmlns="http://www.w3.org/2000/svg"
 width="260.000000pt" height="260.000000pt" viewBox="0 0 260.000000 260.000000"
 preserveAspectRatio="xMidYMid meet">
<metadata>
Created by potrace 1.14, written by Peter Selinger 2001-2017
</metadata>
<g transform="translate(0.000000,260.000000) scale(0.100000,-0.100000)"
fill="#000000" stroke="none">
<path d="M0 2395 l0 -205 390 -2 389 -3 -32 -42 c-17 -23 -86 -114 -152 -203
l-120 -160 -47 0 -48 0 0 -470 0 -469 74 -3 73 -3 -159 -202 -159 -203 -105 0
-104 0 0 -215 0 -215 24 0 c26 0 6 -25 446 555 105 138 276 363 380 500 268
352 479 630 518 681 l32 44 -386 2 -386 3 111 140 c60 77 133 168 161 203 l50
62 380 0 379 0 348 171 c191 94 376 184 410 200 35 15 63 31 63 34 0 3 -569 5
-1265 5 l-1265 0 0 -205z"/>
<path d="M2423 2434 c-70 -91 -137 -178 -148 -194 -11 -15 -51 -68 -88 -116
-38 -49 -108 -140 -155 -202 -48 -63 -114 -149 -147 -191 -72 -93 -230 -300
-265 -347 -14 -19 -59 -77 -100 -131 -96 -124 -209 -272 -267 -348 l-45 -60
382 -5 382 -5 -87 -110 c-47 -60 -114 -145 -148 -189 -34 -43 -67 -85 -73 -92
-9 -11 -82 -14 -395 -14 -305 0 -389 -3 -404 -13 -11 -8 -191 -101 -400 -207
-209 -106 -384 -196 -389 -201 -6 -5 529 -9 1257 -9 l1267 0 0 215 0 215 -400
0 -400 0 42 53 c24 29 97 121 163 205 l120 152 48 0 47 0 0 460 0 460 -75 0
-75 0 43 58 c23 31 96 128 161 215 l120 157 103 0 103 0 0 205 0 205 -24 0
c-19 0 -50 -33 -153 -166z"/>
</g>
</svg>
